<?xml version="1.0" encoding="UTF-8" standalone="no"?>
<svg
   xmlns:dc="http://purl.org/dc/elements/1.1/"
   xmlns:cc="http://creativecommons.org/ns#"
   xmlns:rdf="http://www.w3.org/1999/02/22-rdf-syntax-ns#"
   xmlns:svg="http://www.w3.org/2000/svg"
   xmlns="http://www.w3.org/2000/svg"
   xmlns:sodipodi="http://sodipodi.sourceforge.net/DTD/sodipodi-0.dtd"
   xmlns:inkscape="http://www.inkscape.org/namespaces/inkscape"
   width="850"
   height="400"
   viewBox="0 0 680 320"
   version="1.1"
   id="svg5277"
   inkscape:version="0.91 r13725"
   sodipodi:docname="r_u1_y_example3.svg">
  <metadata
     id="metadata5299">
    <rdf:RDF>
      <cc:Work
         rdf:about="">
        <dc:format>image/svg+xml</dc:format>
        <dc:type
           rdf:resource="http://purl.org/dc/dcmitype/StillImage" />
        <dc:title></dc:title>
      </cc:Work>
    </rdf:RDF>
  </metadata>
  <sodipodi:namedview
     pagecolor="#ffffff"
     bordercolor="#666666"
     borderopacity="1"
     objecttolerance="10"
     gridtolerance="10"
     guidetolerance="10"
     inkscape:pageopacity="0"
     inkscape:pageshadow="2"
     inkscape:window-width="1366"
     inkscape:window-height="705"
     id="namedview5297"
     showgrid="false"
     inkscape:zoom="0.49593496"
     inkscape:cx="353.87705"
     inkscape:cy="218.125"
     inkscape:window-x="-8"
     inkscape:window-y="-8"
     inkscape:window-maximized="1"
     inkscape:current-layer="svg5277"
     units="px" />
  <defs
     id="defs5279">
    <clipPath
       id="clip1">
      <path
         d="m 355,140 137,0 0,95 -137,0 z m 0,0"
         id="path5282"
         inkscape:connector-curvature="0" />
    </clipPath>
  </defs>
  <g
     id="surface21"
     transform="matrix(1.3883984,0,0,1.3883984,-13.836041,-164.53391)">
    <path
       style="fill:#b0b0b0;fill-opacity:1;fill-rule:nonzero;stroke:#b0b0b0;stroke-width:0.03;stroke-linecap:square;stroke-linejoin:miter;stroke-miterlimit:3.23930693;stroke-opacity:1"
       d="m 75.980469,353.97266 230.429691,0 0,-133.03907 -230.429691,0 z m 0,0"
       transform="translate(-66,-5)"
       id="path5285"
       inkscape:connector-curvature="0" />
    <path
       style="fill:none;stroke:#000000;stroke-width:3.9920001;stroke-linecap:square;stroke-linejoin:miter;stroke-miterlimit:3.25;stroke-opacity:1"
       d="m 306.41016,220.93359 133.04296,0"
       transform="translate(-66,-5)"
       id="path5287"
       inkscape:connector-curvature="0" />
    <g
       clip-path="url(#clip1)"
       id="g5289"
       style="clip-rule:nonzero">
      <path
         style="fill:none;stroke:#000000;stroke-width:3.9920001;stroke-linecap:square;stroke-linejoin:miter;stroke-miterlimit:3.25;stroke-opacity:1"
         d="M 439.45312,220.93359 555.01953,155.02734"
         transform="translate(-66,-5)"
         id="path5291"
         inkscape:connector-curvature="0" />
    </g>
    <path
       style="fill:#000000;fill-opacity:1;fill-rule:evenodd;stroke:none"
       d="m 243.99219,216 c 0,-1.05859 -0.42188,-2.07422 -1.17188,-2.82031 -0.74609,-0.75 -1.76172,-1.17188 -2.82031,-1.17188 -1.05859,0 -2.07422,0.42188 -2.82031,1.17188 -0.75,0.74609 -1.17188,1.76172 -1.17188,2.82031 0,1.05859 0.42188,2.07422 1.17188,2.82031 0.74609,0.75 1.76172,1.17188 2.82031,1.17188 1.05859,0 2.07422,-0.42188 2.82031,-1.17188 0.75,-0.74609 1.17188,-1.76172 1.17188,-2.82031 z m 0,0"
       id="path5293"
       inkscape:connector-curvature="0" />
    <path
       style="fill:#000000;fill-opacity:1;fill-rule:evenodd;stroke:none"
       d="m 376.99219,216 c 0,-1.05859 -0.42188,-2.07422 -1.17188,-2.82031 -0.74609,-0.75 -1.76172,-1.17188 -2.82031,-1.17188 -1.05859,0 -2.07422,0.42188 -2.82031,1.17188 -0.75,0.74609 -1.17188,1.76172 -1.17188,2.82031 0,1.05859 0.42188,2.07422 1.17188,2.82031 0.74609,0.75 1.76172,1.17188 2.82031,1.17188 1.05859,0 2.07422,-0.42188 2.82031,-1.17188 0.75,-0.74609 1.17188,-1.76172 1.17188,-2.82031 z m 0,0"
       id="path5295"
       inkscape:connector-curvature="0" />
  </g>
</svg>
