<?xml version="1.0" encoding="UTF-8" standalone="no"?>
<svg
   xmlns:dc="http://purl.org/dc/elements/1.1/"
   xmlns:cc="http://creativecommons.org/ns#"
   xmlns:rdf="http://www.w3.org/1999/02/22-rdf-syntax-ns#"
   xmlns:svg="http://www.w3.org/2000/svg"
   xmlns="http://www.w3.org/2000/svg"
   xmlns:sodipodi="http://sodipodi.sourceforge.net/DTD/sodipodi-0.dtd"
   xmlns:inkscape="http://www.inkscape.org/namespaces/inkscape"
   width="850"
   height="400"
   viewBox="0 0 680 320"
   version="1.1"
   id="svg5841"
   inkscape:version="0.91 r13725"
   sodipodi:docname="r_u1_y_example4.svg">
  <metadata
     id="metadata5863">
    <rdf:RDF>
      <cc:Work
         rdf:about="">
        <dc:format>image/svg+xml</dc:format>
        <dc:type
           rdf:resource="http://purl.org/dc/dcmitype/StillImage" />
        <dc:title></dc:title>
      </cc:Work>
    </rdf:RDF>
  </metadata>
  <sodipodi:namedview
     pagecolor="#ffffff"
     bordercolor="#666666"
     borderopacity="1"
     objecttolerance="10"
     gridtolerance="10"
     guidetolerance="10"
     inkscape:pageopacity="0"
     inkscape:pageshadow="2"
     inkscape:window-width="1366"
     inkscape:window-height="705"
     id="namedview5861"
     showgrid="false"
     inkscape:zoom="0.47556675"
     inkscape:cx="354.61335"
     inkscape:cy="248.125"
     inkscape:window-x="-8"
     inkscape:window-y="-8"
     inkscape:window-maximized="1"
     inkscape:current-layer="svg5841"
     units="px" />
  <defs
     id="defs5843">
    <clipPath
       id="clip1">
      <path
         d="m 340,93 150,0 0,149 -150,0 z m 0,0"
         id="path5846"
         inkscape:connector-curvature="0" />
    </clipPath>
  </defs>
  <g
     id="surface28"
     transform="matrix(1.0624136,0,0,1.0624136,-10.58745,-101.07202)">
    <path
       style="fill:#b0b0b0;fill-opacity:1;fill-rule:nonzero;stroke:#b0b0b0;stroke-width:0.03;stroke-linecap:square;stroke-linejoin:miter;stroke-miterlimit:3.23930693;stroke-opacity:1"
       d="m 75.980469,401.32031 300.398441,0 0,-173.4375 -300.398441,0 z m 0,0"
       transform="translate(-66,-5)"
       id="path5849"
       inkscape:connector-curvature="0" />
    <path
       style="fill:none;stroke:#000000;stroke-width:3.9920001;stroke-linecap:square;stroke-linejoin:miter;stroke-miterlimit:3.25;stroke-opacity:1"
       d="m 376.37891,227.88281 173.4375,0"
       transform="translate(-66,-5)"
       id="path5851"
       inkscape:connector-curvature="0" />
    <g
       clip-path="url(#clip1)"
       id="g5853"
       style="clip-rule:nonzero">
      <path
         style="fill:none;stroke:#000000;stroke-width:3.9920001;stroke-linecap:square;stroke-linejoin:miter;stroke-miterlimit:3.25;stroke-opacity:1"
         d="M 549.81641,227.88281 424.79297,107.67969"
         transform="translate(-66,-5)"
         id="path5855"
         inkscape:connector-curvature="0" />
    </g>
    <path
       style="fill:#000000;fill-opacity:1;fill-rule:evenodd;stroke:none"
       d="m 315.20312,223 c 0,-1.37891 -0.54687,-2.70313 -1.52343,-3.67969 -0.97657,-0.97656 -2.30078,-1.52344 -3.67969,-1.52344 -1.37891,0 -2.70313,0.54688 -3.67969,1.52344 -0.97656,0.97656 -1.52344,2.30078 -1.52344,3.67969 0,1.37891 0.54688,2.70312 1.52344,3.67969 0.97656,0.97656 2.30078,1.52343 3.67969,1.52343 1.37891,0 2.70312,-0.54687 3.67969,-1.52343 0.97656,-0.97657 1.52343,-2.30078 1.52343,-3.67969 z m 0,0"
       id="path5857"
       inkscape:connector-curvature="0" />
    <path
       style="fill:#000000;fill-opacity:1;fill-rule:evenodd;stroke:none"
       d="m 489.20312,223 c 0,-1.37891 -0.54687,-2.70313 -1.52343,-3.67969 -0.97657,-0.97656 -2.30078,-1.52344 -3.67969,-1.52344 -1.37891,0 -2.70313,0.54688 -3.67969,1.52344 -0.97656,0.97656 -1.52344,2.30078 -1.52344,3.67969 0,1.37891 0.54688,2.70312 1.52344,3.67969 0.97656,0.97656 2.30078,1.52343 3.67969,1.52343 1.37891,0 2.70312,-0.54687 3.67969,-1.52343 0.97656,-0.97657 1.52343,-2.30078 1.52343,-3.67969 z m 0,0"
       id="path5859"
       inkscape:connector-curvature="0" />
  </g>
</svg>
