<?xml version="1.0" encoding="UTF-8" standalone="no"?>
<svg
   xmlns:dc="http://purl.org/dc/elements/1.1/"
   xmlns:cc="http://creativecommons.org/ns#"
   xmlns:rdf="http://www.w3.org/1999/02/22-rdf-syntax-ns#"
   xmlns:svg="http://www.w3.org/2000/svg"
   xmlns="http://www.w3.org/2000/svg"
   xmlns:sodipodi="http://sodipodi.sourceforge.net/DTD/sodipodi-0.dtd"
   xmlns:inkscape="http://www.inkscape.org/namespaces/inkscape"
   width="850"
   height="400"
   viewBox="0 0 680 320"
   version="1.1"
   id="svg4713"
   inkscape:version="0.91 r13725"
   sodipodi:docname="r_u1_y_example2.svg">
  <metadata
     id="metadata4735">
    <rdf:RDF>
      <cc:Work
         rdf:about="">
        <dc:format>image/svg+xml</dc:format>
        <dc:type
           rdf:resource="http://purl.org/dc/dcmitype/StillImage" />
        <dc:title></dc:title>
      </cc:Work>
    </rdf:RDF>
  </metadata>
  <sodipodi:namedview
     pagecolor="#ffffff"
     bordercolor="#666666"
     borderopacity="1"
     objecttolerance="10"
     gridtolerance="10"
     guidetolerance="10"
     inkscape:pageopacity="0"
     inkscape:pageshadow="2"
     inkscape:window-width="1366"
     inkscape:window-height="705"
     id="namedview4733"
     showgrid="false"
     inkscape:zoom="0.49593496"
     inkscape:cx="353.87705"
     inkscape:cy="200.625"
     inkscape:window-x="-8"
     inkscape:window-y="-8"
     inkscape:window-maximized="1"
     inkscape:current-layer="svg4713"
     units="px" />
  <defs
     id="defs4715">
    <clipPath
       id="clip1">
      <path
         d="m 370,168 122,0 0,129 -122,0 z m 0,0"
         id="path4718"
         inkscape:connector-curvature="0" />
    </clipPath>
  </defs>
  <g
     id="surface14"
     transform="matrix(1.334757,0,0,1.334757,-13.30148,-108.40924)">
    <path
       style="fill:#b0b0b0;fill-opacity:1;fill-rule:nonzero;stroke:#b0b0b0;stroke-width:0.03;stroke-linecap:square;stroke-linejoin:miter;stroke-miterlimit:3.23930693;stroke-opacity:1"
       d="m 75.980469,325.94922 240.296871,0 0,-138.73438 -240.296871,0 z m 0,0"
       transform="translate(-66,-5)"
       id="path4721"
       inkscape:connector-curvature="0" />
    <path
       style="fill:none;stroke:#000000;stroke-width:3.9920001;stroke-linecap:square;stroke-linejoin:miter;stroke-miterlimit:3.25;stroke-opacity:1"
       d="m 316.27734,187.21484 138.73438,0"
       transform="translate(-66,-5)"
       id="path4723"
       inkscape:connector-curvature="0" />
    <g
       clip-path="url(#clip1)"
       id="g4725"
       style="clip-rule:nonzero">
      <path
         style="fill:none;stroke:#000000;stroke-width:3.9920001;stroke-linecap:square;stroke-linejoin:miter;stroke-miterlimit:3.25;stroke-opacity:1"
         d="m 455.01172,187.21484 100.00781,96.15235"
         transform="translate(-66,-5)"
         id="path4727"
         inkscape:connector-curvature="0" />
    </g>
    <path
       style="fill:#000000;fill-opacity:1;fill-rule:evenodd;stroke:none"
       d="m 254.16016,182 c 0,-1.10547 -0.4375,-2.16406 -1.21875,-2.94141 -0.77735,-0.78125 -1.83594,-1.21875 -2.94141,-1.21875 -1.10547,0 -2.16406,0.4375 -2.94141,1.21875 -0.78125,0.77735 -1.21875,1.83594 -1.21875,2.94141 0,1.10547 0.4375,2.16406 1.21875,2.94141 0.77735,0.78125 1.83594,1.21875 2.94141,1.21875 1.10547,0 2.16406,-0.4375 2.94141,-1.21875 0.78125,-0.77735 1.21875,-1.83594 1.21875,-2.94141 z m 0,0"
       id="path4729"
       inkscape:connector-curvature="0" />
    <path
       style="fill:#000000;fill-opacity:1;fill-rule:evenodd;stroke:none"
       d="m 393.16016,182 c 0,-1.10547 -0.4375,-2.16406 -1.21875,-2.94141 -0.77735,-0.78125 -1.83594,-1.21875 -2.94141,-1.21875 -1.10547,0 -2.16406,0.4375 -2.94141,1.21875 -0.78125,0.77735 -1.21875,1.83594 -1.21875,2.94141 0,1.10547 0.4375,2.16406 1.21875,2.94141 0.77735,0.78125 1.83594,1.21875 2.94141,1.21875 1.10547,0 2.16406,-0.4375 2.94141,-1.21875 0.78125,-0.77735 1.21875,-1.83594 1.21875,-2.94141 z m 0,0"
       id="path4731"
       inkscape:connector-curvature="0" />
  </g>
</svg>
