<?xml version="1.0" encoding="UTF-8" standalone="no"?>
<svg
   xmlns:dc="http://purl.org/dc/elements/1.1/"
   xmlns:cc="http://creativecommons.org/ns#"
   xmlns:rdf="http://www.w3.org/1999/02/22-rdf-syntax-ns#"
   xmlns:svg="http://www.w3.org/2000/svg"
   xmlns="http://www.w3.org/2000/svg"
   xmlns:sodipodi="http://sodipodi.sourceforge.net/DTD/sodipodi-0.dtd"
   xmlns:inkscape="http://www.inkscape.org/namespaces/inkscape"
   width="900"
   height="500"
   viewBox="0 0 720 400"
   version="1.1"
   id="svg4730"
   inkscape:version="0.91 r13725"
   sodipodi:docname="r_u1_x_example2.svg">
  <metadata
     id="metadata4752">
    <rdf:RDF>
      <cc:Work
         rdf:about="">
        <dc:format>image/svg+xml</dc:format>
        <dc:type
           rdf:resource="http://purl.org/dc/dcmitype/StillImage" />
        <dc:title></dc:title>
      </cc:Work>
    </rdf:RDF>
  </metadata>
  <sodipodi:namedview
     pagecolor="#ffffff"
     bordercolor="#666666"
     borderopacity="1"
     objecttolerance="10"
     gridtolerance="10"
     guidetolerance="10"
     inkscape:pageopacity="0"
     inkscape:pageshadow="2"
     inkscape:window-width="1366"
     inkscape:window-height="705"
     id="namedview4750"
     showgrid="false"
     inkscape:zoom="0.49593496"
     inkscape:cx="307.5"
     inkscape:cy="197.5"
     inkscape:window-x="-8"
     inkscape:window-y="-8"
     inkscape:window-maximized="1"
     inkscape:current-layer="svg4730"
     units="px" />
  <defs
     id="defs4732">
    <clipPath
       id="clip1">
      <path
         d="m 343,173 149,0 0,49 -149,0 z m 0,0"
         id="path4735"
         inkscape:connector-curvature="0" />
    </clipPath>
  </defs>
  <g
     id="surface21"
     transform="matrix(1.4336108,0,0,1.4336108,-14.286604,-52.672918)">
    <path
       style="fill:#b0b0b0;fill-opacity:1;fill-rule:nonzero;stroke:#b0b0b0;stroke-width:0.03;stroke-linecap:square;stroke-linejoin:miter;stroke-miterlimit:3.23930693;stroke-opacity:1"
       d="m 75.980469,320.74219 222.792971,0 0,-128.62891 -222.792971,0 z m 0,0"
       transform="translate(-66,-5)"
       id="path4738"
       inkscape:connector-curvature="0" />
    <path
       style="fill:none;stroke:#000000;stroke-width:3.9920001;stroke-linecap:square;stroke-linejoin:miter;stroke-miterlimit:3.25;stroke-opacity:1"
       d="m 298.77344,192.11328 128.6289,0"
       transform="translate(-66,-5)"
       id="path4740"
       inkscape:connector-curvature="0" />
    <g
       clip-path="url(#clip1)"
       id="g4742"
       style="clip-rule:nonzero">
      <path
         style="fill:none;stroke:#000000;stroke-width:3.9920001;stroke-linecap:square;stroke-linejoin:miter;stroke-miterlimit:3.25;stroke-opacity:1"
         d="m 427.40234,192.11328 127.61719,16.09375"
         transform="translate(-66,-5)"
         id="path4744"
         inkscape:connector-curvature="0" />
    </g>
    <path
       style="fill:#000000;fill-opacity:1;fill-rule:evenodd;stroke:none"
       d="m 236.85937,187 c 0,-1.02344 -0.40625,-2.00391 -1.1289,-2.73047 -0.72656,-0.72266 -1.70703,-1.12891 -2.73047,-1.12891 -1.02344,0 -2.00391,0.40625 -2.73047,1.12891 -0.72266,0.72656 -1.12891,1.70703 -1.12891,2.73047 0,1.02344 0.40625,2.00391 1.12891,2.73047 0.72656,0.72265 1.70703,1.1289 2.73047,1.1289 1.02344,0 2.00391,-0.40625 2.73047,-1.1289 0.72265,-0.72656 1.1289,-1.70703 1.1289,-2.73047 z m 0,0"
       id="path4746"
       inkscape:connector-curvature="0" />
    <path
       style="fill:#000000;fill-opacity:1;fill-rule:evenodd;stroke:none"
       d="m 364.85937,187 c 0,-1.02344 -0.40625,-2.00391 -1.1289,-2.73047 -0.72656,-0.72266 -1.70703,-1.12891 -2.73047,-1.12891 -1.02344,0 -2.00391,0.40625 -2.73047,1.12891 -0.72266,0.72656 -1.12891,1.70703 -1.12891,2.73047 0,1.02344 0.40625,2.00391 1.12891,2.73047 0.72656,0.72265 1.70703,1.1289 2.73047,1.1289 1.02344,0 2.00391,-0.40625 2.73047,-1.1289 0.72265,-0.72656 1.1289,-1.70703 1.1289,-2.73047 z m 0,0"
       id="path4748"
       inkscape:connector-curvature="0" />
  </g>
</svg>
