<?xml version="1.0" encoding="UTF-8" standalone="no"?>
<svg
   xmlns:dc="http://purl.org/dc/elements/1.1/"
   xmlns:cc="http://creativecommons.org/ns#"
   xmlns:rdf="http://www.w3.org/1999/02/22-rdf-syntax-ns#"
   xmlns:svg="http://www.w3.org/2000/svg"
   xmlns="http://www.w3.org/2000/svg"
   xmlns:sodipodi="http://sodipodi.sourceforge.net/DTD/sodipodi-0.dtd"
   xmlns:inkscape="http://www.inkscape.org/namespaces/inkscape"
   width="900"
   height="500"
   viewBox="0 0 720 400"
   version="1.1"
   id="svg5294"
   inkscape:version="0.91 r13725"
   sodipodi:docname="r_u1_x_example3.svg">
  <metadata
     id="metadata5316">
    <rdf:RDF>
      <cc:Work
         rdf:about="">
        <dc:format>image/svg+xml</dc:format>
        <dc:type
           rdf:resource="http://purl.org/dc/dcmitype/StillImage" />
        <dc:title></dc:title>
      </cc:Work>
    </rdf:RDF>
  </metadata>
  <sodipodi:namedview
     pagecolor="#ffffff"
     bordercolor="#666666"
     borderopacity="1"
     objecttolerance="10"
     gridtolerance="10"
     guidetolerance="10"
     inkscape:pageopacity="0"
     inkscape:pageshadow="2"
     inkscape:window-width="1366"
     inkscape:window-height="705"
     id="namedview5314"
     showgrid="false"
     units="px"
     inkscape:zoom="0.45275779"
     inkscape:cx="601.2553"
     inkscape:cy="366.64195"
     inkscape:window-x="-8"
     inkscape:window-y="-8"
     inkscape:window-maximized="1"
     inkscape:current-layer="svg5294" />
  <defs
     id="defs5296">
    <clipPath
       id="clip1">
      <path
         d="m 450,72 42,0 0,196 -42,0 z m 0,0"
         id="path5299"
         inkscape:connector-curvature="0" />
    </clipPath>
  </defs>
  <g
     id="surface14"
     transform="matrix(1.104952,0,0,1.104952,-11.011365,-60.49237)">
    <path
       style="fill:#b0b0b0;fill-opacity:1;fill-rule:nonzero;stroke:#b0b0b0;stroke-width:0.03;stroke-linecap:square;stroke-linejoin:miter;stroke-miterlimit:3.23930693;stroke-opacity:1"
       d="m 75.980469,421.73828 290.746091,0 0,-167.86328 -290.746091,0 z m 0,0"
       id="path5302"
       inkscape:connector-curvature="0"
       transform="translate(-66,-5)" />
    <path
       style="fill:none;stroke:#000000;stroke-width:3.9920001;stroke-linecap:square;stroke-linejoin:miter;stroke-miterlimit:3.25;stroke-opacity:1"
       d="m 366.72656,253.875 167.85938,0"
       transform="translate(-66,-5)"
       id="path5304"
       inkscape:connector-curvature="0" />
    <g
       clip-path="url(#clip1)"
       id="g5306"
       style="clip-rule:nonzero">
      <path
         style="fill:none;stroke:#000000;stroke-width:3.9920001;stroke-linecap:square;stroke-linejoin:miter;stroke-miterlimit:3.25;stroke-opacity:1"
         d="M 534.58594,253.875 555.01953,87.261719"
         transform="translate(-66,-5)"
         id="path5308"
         inkscape:connector-curvature="0" />
    </g>
    <path
       style="fill:#000000;fill-opacity:1;fill-rule:evenodd;stroke:none"
       d="m 306.03516,249 c 0,-1.33594 -0.53125,-2.61719 -1.47266,-3.5625 -0.94531,-0.94141 -2.22656,-1.47266 -3.5625,-1.47266 -1.33594,0 -2.61719,0.53125 -3.5625,1.47266 -0.94141,0.94531 -1.47266,2.22656 -1.47266,3.5625 0,1.33594 0.53125,2.61719 1.47266,3.5625 0.94531,0.94141 2.22656,1.47266 3.5625,1.47266 1.33594,0 2.61719,-0.53125 3.5625,-1.47266 0.94141,-0.94531 1.47266,-2.22656 1.47266,-3.5625 z m 0,0"
       id="path5310"
       inkscape:connector-curvature="0" />
    <path
       style="fill:#000000;fill-opacity:1;fill-rule:evenodd;stroke:none"
       d="m 474.03516,249 c 0,-1.33594 -0.53125,-2.61719 -1.47266,-3.5625 -0.94531,-0.94141 -2.22656,-1.47266 -3.5625,-1.47266 -1.33594,0 -2.61719,0.53125 -3.5625,1.47266 -0.94141,0.94531 -1.47266,2.22656 -1.47266,3.5625 0,1.33594 0.53125,2.61719 1.47266,3.5625 0.94531,0.94141 2.22656,1.47266 3.5625,1.47266 1.33594,0 2.61719,-0.53125 3.5625,-1.47266 0.94141,-0.94531 1.47266,-2.22656 1.47266,-3.5625 z m 0,0"
       id="path5312"
       inkscape:connector-curvature="0" />
  </g>
</svg>
