<?xml version="1.0" encoding="UTF-8" standalone="no"?>
<svg
   xmlns:dc="http://purl.org/dc/elements/1.1/"
   xmlns:cc="http://creativecommons.org/ns#"
   xmlns:rdf="http://www.w3.org/1999/02/22-rdf-syntax-ns#"
   xmlns:svg="http://www.w3.org/2000/svg"
   xmlns="http://www.w3.org/2000/svg"
   xmlns:sodipodi="http://sodipodi.sourceforge.net/DTD/sodipodi-0.dtd"
   xmlns:inkscape="http://www.inkscape.org/namespaces/inkscape"
   width="900"
   height="500"
   viewBox="0 0 720 400"
   version="1.1"
   id="svg2"
   inkscape:version="0.91 r13725"
   sodipodi:docname="r_u1_x_example4.svg">
  <metadata
     id="metadata24">
    <rdf:RDF>
      <cc:Work
         rdf:about="">
        <dc:format>image/svg+xml</dc:format>
        <dc:type
           rdf:resource="http://purl.org/dc/dcmitype/StillImage" />
        <dc:title></dc:title>
      </cc:Work>
    </rdf:RDF>
  </metadata>
  <sodipodi:namedview
     pagecolor="#ffffff"
     bordercolor="#666666"
     borderopacity="1"
     objecttolerance="10"
     gridtolerance="10"
     guidetolerance="10"
     inkscape:pageopacity="0"
     inkscape:pageshadow="2"
     inkscape:window-width="1366"
     inkscape:window-height="705"
     id="namedview22"
     showgrid="false"
     inkscape:zoom="0.35211032"
     inkscape:cx="94.266381"
     inkscape:cy="-29.998719"
     inkscape:window-x="-8"
     inkscape:window-y="-8"
     inkscape:window-maximized="1"
     inkscape:current-layer="svg2"
     units="px" />
  <defs
     id="defs4">
    <clipPath
       id="clip1">
      <path
         d="m 293,142 197,0 0,50 -197,0 z m 0,0"
         id="path7"
         inkscape:connector-curvature="0" />
    </clipPath>
  </defs>
  <g
     id="g4158"
     transform="matrix(1.0672876,0,0,1.0672876,-10.165515,29.564315)">
    <path
       style="fill:#b0b0b0;fill-opacity:1;fill-rule:nonzero;stroke:#b0b0b0;stroke-width:0.03;stroke-linecap:square;stroke-linejoin:miter;stroke-miterlimit:3.23930693;stroke-opacity:1"
       d="m 9.5396255,347.06641 300.3984445,0 0,-173.4336 -300.3984445,0 z m 0,0"
       id="path10"
       inkscape:connector-curvature="0" />
    <path
       style="fill:none;stroke:#000000;stroke-width:3.9920001;stroke-linecap:square;stroke-linejoin:miter;stroke-miterlimit:3.25;stroke-opacity:1"
       d="m 310.37891,173.63281 173.4375,0"
       id="path12"
       inkscape:connector-curvature="0" />
    <g
       clip-path="url(#clip1)"
       id="g14"
       style="clip-rule:nonzero">
      <path
         style="fill:none;stroke:#000000;stroke-width:3.9920001;stroke-linecap:square;stroke-linejoin:miter;stroke-miterlimit:3.25;stroke-opacity:1"
         d="M 484.25733,173.63281 312.18311,151.93359"
         id="path16"
         inkscape:connector-curvature="0" />
    </g>
    <path
       style="fill:#000000;fill-opacity:1;fill-rule:evenodd;stroke:none"
       d="m 315.20312,174 c 0,-1.37891 -0.54687,-2.70313 -1.52343,-3.67969 -0.97657,-0.97656 -2.30078,-1.52344 -3.67969,-1.52344 -1.37891,0 -2.70313,0.54688 -3.67969,1.52344 -0.97656,0.97656 -1.52344,2.30078 -1.52344,3.67969 0,1.37891 0.54688,2.70312 1.52344,3.67969 0.97656,0.97656 2.30078,1.52343 3.67969,1.52343 1.37891,0 2.70312,-0.54687 3.67969,-1.52343 0.97656,-0.97657 1.52343,-2.30078 1.52343,-3.67969 z m 0,0"
       id="path18"
       inkscape:connector-curvature="0" />
    <path
       style="fill:#000000;fill-opacity:1;fill-rule:evenodd;stroke:none"
       d="m 489.20312,174 c 0,-1.37891 -0.54687,-2.70313 -1.52343,-3.67969 -0.97657,-0.97656 -2.30078,-1.52344 -3.67969,-1.52344 -1.37891,0 -2.70313,0.54688 -3.67969,1.52344 -0.97656,0.97656 -1.52344,2.30078 -1.52344,3.67969 0,1.37891 0.54688,2.70312 1.52344,3.67969 0.97656,0.97656 2.30078,1.52343 3.67969,1.52343 1.37891,0 2.70312,-0.54687 3.67969,-1.52343 0.97656,-0.97657 1.52343,-2.30078 1.52343,-3.67969 z m 0,0"
       id="path20"
       inkscape:connector-curvature="0" />
  </g>
</svg>
