<?xml version="1.0" encoding="UTF-8" standalone="no"?>
<svg
   xmlns:dc="http://purl.org/dc/elements/1.1/"
   xmlns:cc="http://creativecommons.org/ns#"
   xmlns:rdf="http://www.w3.org/1999/02/22-rdf-syntax-ns#"
   xmlns:svg="http://www.w3.org/2000/svg"
   xmlns="http://www.w3.org/2000/svg"
   xmlns:sodipodi="http://sodipodi.sourceforge.net/DTD/sodipodi-0.dtd"
   xmlns:inkscape="http://www.inkscape.org/namespaces/inkscape"
   width="900"
   height="500"
   viewBox="0 0 720 400"
   version="1.1"
   id="svg4166"
   inkscape:version="0.91 r13725"
   sodipodi:docname="r_u1_x_example1.svg">
  <metadata
     id="metadata4188">
    <rdf:RDF>
      <cc:Work
         rdf:about="">
        <dc:format>image/svg+xml</dc:format>
        <dc:type
           rdf:resource="http://purl.org/dc/dcmitype/StillImage" />
        <dc:title></dc:title>
      </cc:Work>
    </rdf:RDF>
  </metadata>
  <sodipodi:namedview
     pagecolor="#ffffff"
     bordercolor="#666666"
     borderopacity="1"
     objecttolerance="10"
     gridtolerance="10"
     guidetolerance="10"
     inkscape:pageopacity="0"
     inkscape:pageshadow="2"
     inkscape:window-width="1366"
     inkscape:window-height="705"
     id="namedview4186"
     showgrid="false"
     inkscape:zoom="0.49795918"
     inkscape:cx="306.25"
     inkscape:cy="212.5"
     inkscape:window-x="-8"
     inkscape:window-y="-8"
     inkscape:window-maximized="1"
     inkscape:current-layer="svg4166"
     units="px" />
  <defs
     id="defs4168">
    <clipPath
       id="clip1">
      <path
         d="m 444,150 46,0 0,190 -46,0 z m 0,0"
         id="path4171"
         inkscape:connector-curvature="0" />
    </clipPath>
  </defs>
  <g
     id="surface28"
     transform="matrix(1.0649693,0,0,1.0649693,-10.612919,38.170986)">
    <path
       style="fill:#b0b0b0;fill-opacity:1;fill-rule:nonzero;stroke:#b0b0b0;stroke-width:0.03;stroke-linecap:square;stroke-linejoin:miter;stroke-miterlimit:3.23930693;stroke-opacity:1"
       d="m 75.980469,343.82031 300.398441,0 0,-173.4375 -300.398441,0 z m 0,0"
       transform="translate(-66,-5)"
       id="path4174"
       inkscape:connector-curvature="0" />
    <path
       style="fill:none;stroke:#000000;stroke-width:3.9920001;stroke-linecap:square;stroke-linejoin:miter;stroke-miterlimit:3.25;stroke-opacity:1"
       d="m 376.37891,170.38281 173.4375,0"
       transform="translate(-66,-5)"
       id="path4176"
       inkscape:connector-curvature="0" />
    <g
       clip-path="url(#clip1)"
       id="g4178"
       style="clip-rule:nonzero">
      <path
         style="fill:none;stroke:#000000;stroke-width:3.9920001;stroke-linecap:square;stroke-linejoin:miter;stroke-miterlimit:3.25;stroke-opacity:1"
         d="M 549.81641,170.38281 528.70703,342.53125"
         transform="translate(-66,-5)"
         id="path4180"
         inkscape:connector-curvature="0" />
    </g>
    <path
       style="fill:#000000;fill-opacity:1;fill-rule:evenodd;stroke:none"
       d="m 315.20312,165 c 0,-1.37891 -0.54687,-2.70313 -1.52343,-3.67969 -0.97657,-0.97656 -2.30078,-1.52344 -3.67969,-1.52344 -1.37891,0 -2.70313,0.54688 -3.67969,1.52344 -0.97656,0.97656 -1.52344,2.30078 -1.52344,3.67969 0,1.37891 0.54688,2.70312 1.52344,3.67969 0.97656,0.97656 2.30078,1.52343 3.67969,1.52343 1.37891,0 2.70312,-0.54687 3.67969,-1.52343 0.97656,-0.97657 1.52343,-2.30078 1.52343,-3.67969 z m 0,0"
       id="path4182"
       inkscape:connector-curvature="0" />
    <path
       style="fill:#000000;fill-opacity:1;fill-rule:evenodd;stroke:none"
       d="m 489.20312,165 c 0,-1.37891 -0.54687,-2.70313 -1.52343,-3.67969 -0.97657,-0.97656 -2.30078,-1.52344 -3.67969,-1.52344 -1.37891,0 -2.70313,0.54688 -3.67969,1.52344 -0.97656,0.97656 -1.52344,2.30078 -1.52344,3.67969 0,1.37891 0.54688,2.70312 1.52344,3.67969 0.97656,0.97656 2.30078,1.52343 3.67969,1.52343 1.37891,0 2.70312,-0.54687 3.67969,-1.52343 0.97656,-0.97657 1.52343,-2.30078 1.52343,-3.67969 z m 0,0"
       id="path4184"
       inkscape:connector-curvature="0" />
  </g>
</svg>
