<?xml version="1.0" encoding="UTF-8" standalone="no"?>
<svg
   xmlns:dc="http://purl.org/dc/elements/1.1/"
   xmlns:cc="http://creativecommons.org/ns#"
   xmlns:rdf="http://www.w3.org/1999/02/22-rdf-syntax-ns#"
   xmlns:svg="http://www.w3.org/2000/svg"
   xmlns="http://www.w3.org/2000/svg"
   xmlns:sodipodi="http://sodipodi.sourceforge.net/DTD/sodipodi-0.dtd"
   xmlns:inkscape="http://www.inkscape.org/namespaces/inkscape"
   width="900"
   height="250"
   viewBox="0 0 720 200"
   version="1.1"
   id="svg6969"
   inkscape:version="0.91 r13725"
   sodipodi:docname="r_u2_x_example2.svg">
  <metadata
     id="metadata6991">
    <rdf:RDF>
      <cc:Work
         rdf:about="">
        <dc:format>image/svg+xml</dc:format>
        <dc:type
           rdf:resource="http://purl.org/dc/dcmitype/StillImage" />
        <dc:title></dc:title>
      </cc:Work>
    </rdf:RDF>
  </metadata>
  <sodipodi:namedview
     pagecolor="#ffffff"
     bordercolor="#666666"
     borderopacity="1"
     objecttolerance="10"
     gridtolerance="10"
     guidetolerance="10"
     inkscape:pageopacity="0"
     inkscape:pageshadow="2"
     inkscape:window-width="1366"
     inkscape:window-height="705"
     id="namedview6989"
     showgrid="false"
     units="px"
     inkscape:zoom="0.49593496"
     inkscape:cx="353.87705"
     inkscape:cy="197.5"
     inkscape:window-x="-8"
     inkscape:window-y="-8"
     inkscape:window-maximized="1"
     inkscape:current-layer="svg6969" />
  <defs
     id="defs6971">
    <clipPath
       id="clip1">
      <path
         d="m 342,173 150,0 0,36 -150,0 z m 0,0"
         id="path6974"
         inkscape:connector-curvature="0" />
    </clipPath>
  </defs>
  <g
     id="surface42"
     transform="matrix(1.4358843,0,0,1.4358843,-14.30926,-253.20008)">
    <path
       style="fill:#b0b0b0;fill-opacity:1;fill-rule:nonzero;stroke:#b0b0b0;stroke-width:0.03;stroke-linecap:square;stroke-linejoin:miter;stroke-miterlimit:3.23930693;stroke-opacity:1"
       d="m 75.980469,320.60937 222.343751,0 0,-128.36718 -222.343751,0 z m 0,0"
       transform="translate(-66,-5)"
       id="path6977"
       inkscape:connector-curvature="0" />
    <path
       style="fill:none;stroke:#000000;stroke-width:3.9920001;stroke-linecap:square;stroke-linejoin:miter;stroke-miterlimit:3.25;stroke-opacity:1"
       d="m 298.32422,192.24219 128.37109,0"
       transform="translate(-66,-5)"
       id="path6979"
       inkscape:connector-curvature="0" />
    <g
       clip-path="url(#clip1)"
       id="g6981"
       style="clip-rule:nonzero">
      <path
         style="fill:none;stroke:#000000;stroke-width:3.9920001;stroke-linecap:square;stroke-linejoin:miter;stroke-miterlimit:3.25;stroke-opacity:1"
         d="m 426.69531,192.24219 128.32422,3.39843"
         transform="translate(-66,-5)"
         id="path6983"
         inkscape:connector-curvature="0" />
    </g>
    <path
       style="fill:#000000;fill-opacity:1;fill-rule:evenodd;stroke:none"
       d="m 235.85156,187 c 0,-1.01953 -0.40625,-2 -1.1289,-2.72266 -0.72266,-0.72265 -1.70313,-1.1289 -2.72266,-1.1289 -1.01953,0 -2,0.40625 -2.72266,1.1289 -0.72265,0.72266 -1.1289,1.70313 -1.1289,2.72266 0,1.01953 0.40625,2 1.1289,2.72266 0.72266,0.72265 1.70313,1.1289 2.72266,1.1289 1.01953,0 2,-0.40625 2.72266,-1.1289 0.72265,-0.72266 1.1289,-1.70313 1.1289,-2.72266 z m 0,0"
       id="path6985"
       inkscape:connector-curvature="0" />
    <path
       style="fill:#000000;fill-opacity:1;fill-rule:evenodd;stroke:none"
       d="m 364.85156,187 c 0,-1.01953 -0.40625,-2 -1.1289,-2.72266 -0.72266,-0.72265 -1.70313,-1.1289 -2.72266,-1.1289 -1.01953,0 -2,0.40625 -2.72266,1.1289 -0.72265,0.72266 -1.1289,1.70313 -1.1289,2.72266 0,1.01953 0.40625,2 1.1289,2.72266 0.72266,0.72265 1.70313,1.1289 2.72266,1.1289 1.01953,0 2,-0.40625 2.72266,-1.1289 0.72265,-0.72266 1.1289,-1.70313 1.1289,-2.72266 z m 0,0"
       id="path6987"
       inkscape:connector-curvature="0" />
  </g>
</svg>
