<?xml version="1.0" encoding="UTF-8" standalone="no"?>
<svg
   xmlns:dc="http://purl.org/dc/elements/1.1/"
   xmlns:cc="http://creativecommons.org/ns#"
   xmlns:rdf="http://www.w3.org/1999/02/22-rdf-syntax-ns#"
   xmlns:svg="http://www.w3.org/2000/svg"
   xmlns="http://www.w3.org/2000/svg"
   xmlns:sodipodi="http://sodipodi.sourceforge.net/DTD/sodipodi-0.dtd"
   xmlns:inkscape="http://www.inkscape.org/namespaces/inkscape"
   width="750"
   height="500"
   viewBox="0 0 600 400"
   version="1.1"
   id="svg7533"
   inkscape:version="0.91 r13725"
   sodipodi:docname="r_u2_y_example1.svg">
  <metadata
     id="metadata7555">
    <rdf:RDF>
      <cc:Work
         rdf:about="">
        <dc:format>image/svg+xml</dc:format>
        <dc:type
           rdf:resource="http://purl.org/dc/dcmitype/StillImage" />
        <dc:title></dc:title>
      </cc:Work>
    </rdf:RDF>
  </metadata>
  <sodipodi:namedview
     pagecolor="#ffffff"
     bordercolor="#666666"
     borderopacity="1"
     objecttolerance="10"
     gridtolerance="10"
     guidetolerance="10"
     inkscape:pageopacity="0"
     inkscape:pageshadow="2"
     inkscape:window-width="1366"
     inkscape:window-height="705"
     id="namedview7553"
     showgrid="false"
     units="px"
     inkscape:zoom="0.49593496"
     inkscape:cx="353.87705"
     inkscape:cy="207.5"
     inkscape:window-x="-8"
     inkscape:window-y="-8"
     inkscape:window-maximized="1"
     inkscape:current-layer="svg7533" />
  <defs
     id="defs7535">
    <clipPath
       id="clip1">
      <path
         d="m 424,158 68,0 0,174 -68,0 z m 0,0"
         id="path7538"
         inkscape:connector-curvature="0" />
    </clipPath>
  </defs>
  <g
     id="surface49"
     transform="matrix(1.1642825,0,0,1.1642825,-11.602621,14.58229)">
    <path
       style="fill:#b0b0b0;fill-opacity:1;fill-rule:nonzero;stroke:#b0b0b0;stroke-width:0.03;stroke-linecap:square;stroke-linejoin:miter;stroke-miterlimit:3.23930693;stroke-opacity:1"
       d="m 75.980469,336.01953 274.167971,0 0,-158.29297 -274.167971,0 z m 0,0"
       transform="translate(-66,-5)"
       id="path7541"
       inkscape:connector-curvature="0" />
    <path
       style="fill:none;stroke:#000000;stroke-width:3.9920001;stroke-linecap:square;stroke-linejoin:miter;stroke-miterlimit:3.25;stroke-opacity:1"
       d="m 350.14844,177.72656 158.29297,0"
       transform="translate(-66,-5)"
       id="path7543"
       inkscape:connector-curvature="0" />
    <g
       clip-path="url(#clip1)"
       id="g7545"
       style="clip-rule:nonzero">
      <path
         style="fill:none;stroke:#000000;stroke-width:3.9920001;stroke-linecap:square;stroke-linejoin:miter;stroke-miterlimit:3.25;stroke-opacity:1"
         d="m 508.44141,177.72656 46.57812,151.28516"
         transform="translate(-66,-5)"
         id="path7547"
         inkscape:connector-curvature="0" />
    </g>
    <path
       style="fill:#000000;fill-opacity:1;fill-rule:evenodd;stroke:none"
       d="m 288.75,173 c 0,-1.25781 -0.5,-2.46875 -1.39063,-3.35938 C 286.46875,168.75 285.25781,168.25 284,168.25 c -1.25781,0 -2.46875,0.5 -3.35938,1.39062 C 279.75,170.53125 279.25,171.74219 279.25,173 c 0,1.25781 0.5,2.46875 1.39062,3.35937 0.89063,0.89063 2.10157,1.39063 3.35938,1.39063 1.25781,0 2.46875,-0.5 3.35937,-1.39063 C 288.25,175.46875 288.75,174.25781 288.75,173 Z m 0,0"
       id="path7549"
       inkscape:connector-curvature="0" />
    <path
       style="fill:#000000;fill-opacity:1;fill-rule:evenodd;stroke:none"
       d="m 446.75,173 c 0,-1.25781 -0.5,-2.46875 -1.39063,-3.35938 C 444.46875,168.75 443.25781,168.25 442,168.25 c -1.25781,0 -2.46875,0.5 -3.35938,1.39062 C 437.75,170.53125 437.25,171.74219 437.25,173 c 0,1.25781 0.5,2.46875 1.39062,3.35937 0.89063,0.89063 2.10157,1.39063 3.35938,1.39063 1.25781,0 2.46875,-0.5 3.35937,-1.39063 C 446.25,175.46875 446.75,174.25781 446.75,173 Z m 0,0"
       id="path7551"
       inkscape:connector-curvature="0" />
  </g>
</svg>
