<?xml version="1.0" encoding="UTF-8" standalone="no"?>
<svg
   xmlns:dc="http://purl.org/dc/elements/1.1/"
   xmlns:cc="http://creativecommons.org/ns#"
   xmlns:rdf="http://www.w3.org/1999/02/22-rdf-syntax-ns#"
   xmlns:svg="http://www.w3.org/2000/svg"
   xmlns="http://www.w3.org/2000/svg"
   xmlns:sodipodi="http://sodipodi.sourceforge.net/DTD/sodipodi-0.dtd"
   xmlns:inkscape="http://www.inkscape.org/namespaces/inkscape"
   width="750"
   height="500"
   viewBox="0 0 600 400"
   version="1.1"
   id="svg8097"
   inkscape:version="0.91 r13725"
   sodipodi:docname="r_u2_y_example2.svg">
  <metadata
     id="metadata8119">
    <rdf:RDF>
      <cc:Work
         rdf:about="">
        <dc:format>image/svg+xml</dc:format>
        <dc:type
           rdf:resource="http://purl.org/dc/dcmitype/StillImage" />
        <dc:title></dc:title>
      </cc:Work>
    </rdf:RDF>
  </metadata>
  <sodipodi:namedview
     pagecolor="#ffffff"
     bordercolor="#666666"
     borderopacity="1"
     objecttolerance="10"
     gridtolerance="10"
     guidetolerance="10"
     inkscape:pageopacity="0"
     inkscape:pageshadow="2"
     inkscape:window-width="1366"
     inkscape:window-height="705"
     id="namedview8117"
     showgrid="false"
     units="px"
     inkscape:zoom="0.46732673"
     inkscape:cx="356.7161"
     inkscape:cy="252.5"
     inkscape:window-x="-8"
     inkscape:window-y="-8"
     inkscape:window-maximized="1"
     inkscape:current-layer="svg8097" />
  <defs
     id="defs8099">
    <clipPath
       id="clip1">
      <path
         d="m 422,86 70,0 0,179 -70,0 z m 0,0"
         id="path8102"
         inkscape:connector-curvature="0" />
    </clipPath>
  </defs>
  <g
     id="surface56"
     transform="matrix(1.1686668,0,0,1.1686668,-11.646313,-71.469591)">
    <path
       style="fill:#b0b0b0;fill-opacity:1;fill-rule:nonzero;stroke:#b0b0b0;stroke-width:0.03;stroke-linecap:square;stroke-linejoin:miter;stroke-miterlimit:3.23930693;stroke-opacity:1"
       d="m 75.980469,408.41016 273.121091,0 0,-157.6875 -273.121091,0 z m 0,0"
       transform="translate(-66,-5)"
       id="path8105"
       inkscape:connector-curvature="0" />
    <path
       style="fill:none;stroke:#000000;stroke-width:3.9920001;stroke-linecap:square;stroke-linejoin:miter;stroke-miterlimit:3.25;stroke-opacity:1"
       d="m 349.10156,250.72266 157.6875,0"
       transform="translate(-66,-5)"
       id="path8107"
       inkscape:connector-curvature="0" />
    <g
       clip-path="url(#clip1)"
       id="g8109"
       style="clip-rule:nonzero">
      <path
         style="fill:none;stroke:#000000;stroke-width:3.9920001;stroke-linecap:square;stroke-linejoin:miter;stroke-miterlimit:3.25;stroke-opacity:1"
         d="M 506.78906,250.72266 555.01953,100.58984"
         transform="translate(-66,-5)"
         id="path8111"
         inkscape:connector-curvature="0" />
    </g>
    <path
       style="fill:#000000;fill-opacity:1;fill-rule:evenodd;stroke:none"
       d="m 287.73047,246 c 0,-1.25391 -0.5,-2.45703 -1.38672,-3.34375 -0.88672,-0.88672 -2.08984,-1.38672 -3.34375,-1.38672 -1.25391,0 -2.45703,0.5 -3.34375,1.38672 -0.88672,0.88672 -1.38672,2.08984 -1.38672,3.34375 0,1.25391 0.5,2.45703 1.38672,3.34375 0.88672,0.88672 2.08984,1.38672 3.34375,1.38672 1.25391,0 2.45703,-0.5 3.34375,-1.38672 0.88672,-0.88672 1.38672,-2.08984 1.38672,-3.34375 z m 0,0"
       id="path8113"
       inkscape:connector-curvature="0" />
    <path
       style="fill:#000000;fill-opacity:1;fill-rule:evenodd;stroke:none"
       d="m 445.73047,246 c 0,-1.25391 -0.5,-2.45703 -1.38672,-3.34375 -0.88672,-0.88672 -2.08984,-1.38672 -3.34375,-1.38672 -1.25391,0 -2.45703,0.5 -3.34375,1.38672 -0.88672,0.88672 -1.38672,2.08984 -1.38672,3.34375 0,1.25391 0.5,2.45703 1.38672,3.34375 0.88672,0.88672 2.08984,1.38672 3.34375,1.38672 1.25391,0 2.45703,-0.5 3.34375,-1.38672 0.88672,-0.88672 1.38672,-2.08984 1.38672,-3.34375 z m 0,0"
       id="path8115"
       inkscape:connector-curvature="0" />
  </g>
</svg>
